<?xml version="1.0" encoding="utf-8"?>
<svg version="1.1" viewBox="0 0 460 540" xmlns="http://www.w3.org/2000/svg">
  <g id="Canvas_1" stroke="none" fill="none" stroke-opacity="1" fill-opacity="1" stroke-dasharray="none" transform="matrix(0.705075, 0, 0, 0.704435, -13.396424, -9.86209)">
    <title>Canvas 1</title>
    <g id="Canvas_1_Layer_1">
      <title>Layer 1</title>
      <g id="Graphic_2">
        <path d="M 20.71763 289.57136 C 17.550963 282.73803 18.884297 256.4047 23.71763 244.57136 C 28.550963 232.73803 42.71763 223.57136 42.71763 223.57136 L 52.71763 180.57136 C 52.71763 180.57136 60.55096 134.73803 100.71763 115.57136 C 140.8843 96.4047 173.8843 111.4047 193.71763 111.57136 C 213.55096 111.73803 225.71763 97.57136 225.71763 97.57136 C 225.71763 97.57136 256.3843 25.57136 313.71763 15.571361 C 371.05096 5.571361 406.71763 46.57136 406.71763 46.57136 C 406.71763 46.57136 436.3843 34.738028 451.71763 36.57136 C 467.05096 38.404694 493.71763 60.57136 493.71763 60.57136 C 493.71763 60.57136 538.05096 65.57136 559.7176 80.57136 C 581.3843 95.57136 594.7176 116.4047 598.7176 130.57136 C 602.7176 144.73803 604.7176 179.57136 604.7176 179.57136 L 605.70694 212.21872 C 605.71386 212.44692 605.79865 212.66589 605.9472 212.83923 L 635.7176 247.57136 C 635.7176 247.57136 666.3843 269.73803 670.7176 296.57136 C 675.051 323.4047 657.7176 371.57136 657.7176 371.57136 C 657.7176 371.57136 652.2176 402.23803 633.7176 415.57136 C 615.2176 428.9047 593.7176 425.57136 593.7176 425.57136 L 550.7522 414.5802 C 550.72916 414.5743 550.70634 414.5676 550.6838 414.5601 L 533.1501 408.7155 C 532.8754 408.62395 532.57446 408.65596 532.32515 408.8033 L 511.1558 421.31244 C 510.8805 421.4751 510.544 421.49633 510.2504 421.3695 L 462.24206 400.62513 C 462.1595 400.58946 462.0821 400.5428 462.012 400.48644 L 434.4896 378.353 C 434.0592 378.0069 433.42975 378.07522 433.08364 378.5056 C 433.0378 378.5626 432.99837 378.62444 432.966 378.69003 L 405.3789 434.63596 C 405.13464 435.1313 405.3382 435.73085 405.83353 435.9751 C 405.8461 435.9813 405.8588 435.98724 405.8716 435.9929 L 413.06683 439.1722 C 413.35105 439.29776 413.6775 439.2841 413.9502 439.1352 L 445.98147 421.64573 C 446.0717 421.59645 446.1538 421.53356 446.2249 421.45926 L 467.6231 399.0884 C 467.91885 398.7792 468.3785 398.6924 468.7666 398.8725 L 512.51764 419.17137 C 512.51764 419.17137 488.8843 440.98803 465.71763 453.57136 C 442.55096 466.1547 417.71763 468.57136 417.71763 468.57136 L 405.2971 471.43763 C 404.94 471.52005 404.65655 471.79123 404.55846 472.1444 L 399.74765 489.4633 C 399.7277 489.5351 399.71584 489.60893 399.7123 489.6834 L 397.7225 531.4694 C 397.71926 531.5372 397.70914 531.6045 397.6923 531.6702 L 387.73874 570.48904 C 387.7247 570.5438 387.7153 570.5997 387.7107 570.65606 L 383.72234 619.5137 C 383.7192 619.5521 383.7183 619.5907 383.7196 619.6292 L 389.1823 779.5372 C 389.20116 780.0892 388.769 780.5519 388.21703 780.5708 C 388.20565 780.5712 388.19427 780.5714 388.1829 780.5714 L 302.7664 780.5714 C 302.2141 780.5714 301.7664 780.1236 301.7664 779.5714 C 301.7664 779.5555 301.76676 779.5396 301.7675 779.5238 L 309.71657 612.5936 C 309.71728 612.5788 309.7183 612.564 309.71967 612.5492 L 315.6745 548.0386 C 315.70182 547.7426 315.59604 547.4498 315.38584 547.2396 L 272.735 504.58874 C 272.72342 504.57716 272.71213 504.5653 272.70113 504.55315 L 243.80344 472.66604 C 243.74646 472.6032 243.69772 472.5333 243.6584 472.45815 L 216.7496 421.03246 C 216.72832 420.9918 216.70986 420.9497 216.69436 420.9065 L 203.80603 384.97537 C 203.63994 384.51233 203.83528 383.99727 204.26665 383.76082 L 250.3181 358.51923 C 250.8024 358.25378 251.41022 358.4312 251.67567 358.9155 C 251.6966 358.95365 251.715 358.99314 251.73076 359.0337 L 256.8672 372.2417 C 256.90067 372.32773 256.92205 372.418 256.93075 372.5099 L 260.10867 406.0767 C 260.11464 406.13967 260.12656 406.20194 260.1443 406.26267 L 269.47455 438.22377 C 269.5031 438.3216 269.54645 438.4145 269.60308 438.4992 L 295.6806 477.51596 C 295.70526 477.55286 295.73236 477.5881 295.7617 477.6214 L 319.1032 504.11214 C 319.46832 504.5265 320.10023 504.56645 320.5146 504.20134 C 320.7362 504.0061 320.86016 503.72285 320.85323 503.4276 L 319.92055 463.6954 C 319.9186 463.61303 319.9065 463.5312 319.8845 463.4518 L 310.71894 430.37606 C 310.71807 430.37294 310.71722 430.3698 310.7164 430.3667 L 297.9725 382.5771 C 297.93633 382.44147 297.872 382.31497 297.7837 382.20583 L 283.73034 364.8343 C 283.59238 364.66376 283.40217 364.5433 283.189 364.4915 L 262.44617 359.4512 C 262.23307 359.39942 262.00886 359.41913 261.80806 359.5073 L 205.31199 384.31042 C 204.9505 384.46913 204.52945 384.4003 204.23732 384.1347 L 182.91413 364.75 C 182.78536 364.63294 182.62827 364.5515 182.4584 364.51375 L 156.00622 358.6355 C 155.81786 358.59363 155.6214 358.60717 155.44056 358.67446 L 112.71763 374.57136 C 112.71763 374.57136 68.05096 389.73803 45.71763 372.57136 C 23.384297 355.4047 27.71763 319.57136 27.71763 319.57136 L 33.71763 307.57136 C 33.71763 307.57136 23.884297 296.4047 20.71763 289.57136 Z" fill="black"/>
      </g>
    </g>
  </g>
</svg>