<?xml version='1.0' encoding='UTF-8'?>
<svg viewBox="-4.0707 -2 32 32" xmlns="http://www.w3.org/2000/svg" xmlns:xlink="http://www.w3.org/1999/xlink">
  <g transform="translate(0, 0)">
    <g transform="matrix(0.875, 0, 0, 0.875, 0, 0)">
      <g transform="translate(-0.0001, 0)">
        <g transform="matrix(1.1428, 0, 0, 1.1428, 0, 0)">
          <g transform="matrix(0.875, 0, 0, 0.875, 0, 0)">
            <g transform="matrix(1.1427, 0, 0, 1.1427, 0, 0)">
              <g transform="translate(0, 0)">
                <g transform="translate(0.0122, 0.0122)">
                  <g transform="matrix(0.0518, 0, 0, 0.0518, 0, 0)">
                    <g fill="none" fill-opacity="1" id="Canvas_1" transform="matrix(0.7051, 0, 0, 0.7044, -13.3964, -9.8621)" stroke="none" stroke-opacity="1">
                      <g id="Canvas_1_Layer_1">
                        <g id="Graphic_2">
                          <path d="M20.7176, 289.5714C17.551, 282.738 18.8843, 256.4047 23.7176, 244.5714C28.551, 232.738 42.7176, 223.5714 42.7176, 223.5714L52.7176, 180.5714C52.7176, 180.5714 60.551, 134.738 100.7176, 115.5714C140.8843, 96.4047 173.8843, 111.4047 193.7176, 111.5714C213.551, 111.738 225.7176, 97.5714 225.7176, 97.5714C225.7176, 97.5714 256.3843, 25.5714 313.7176, 15.5714C371.051, 5.5714 406.7176, 46.5714 406.7176, 46.5714C406.7176, 46.5714 436.3843, 34.738 451.7176, 36.5714C467.051, 38.4047 493.7176, 60.5714 493.7176, 60.5714C493.7176, 60.5714 538.051, 65.5714 559.7176, 80.5714C581.3843, 95.5714 594.7176, 116.4047 598.7176, 130.5714C602.7176, 144.738 604.7176, 179.5714 604.7176, 179.5714L605.7069, 212.2187C605.7139, 212.4469 605.7986, 212.6659 605.9472, 212.8392L635.7176, 247.5714C635.7176, 247.5714 666.3843, 269.738 670.7176, 296.5714C675.051, 323.4047 657.7176, 371.5714 657.7176, 371.5714C657.7176, 371.5714 652.2176, 402.238 633.7176, 415.5714C615.2176, 428.9047 593.7176, 425.5714 593.7176, 425.5714L550.7522, 414.5802C550.7292, 414.5743 550.7063, 414.5676 550.6838, 414.5601L533.1501, 408.7155C532.8754, 408.624 532.5745, 408.656 532.3252, 408.8033L511.1558, 421.3124C510.8805, 421.4751 510.544, 421.4963 510.2504, 421.3695L462.2421, 400.6251C462.1595, 400.5895 462.0821, 400.5428 462.012, 400.4864L434.4896, 378.353C434.0592, 378.0069 433.4298, 378.0752 433.0836, 378.5056C433.0378, 378.5626 432.9984, 378.6244 432.966, 378.69L405.3789, 434.636C405.1346, 435.1313 405.3382, 435.7308 405.8335, 435.9751C405.8461, 435.9813 405.8588, 435.9872 405.8716, 435.9929L413.0668, 439.1722C413.351, 439.2978 413.6775, 439.2841 413.9502, 439.1352L445.9815, 421.6457C446.0717, 421.5964 446.1538, 421.5336 446.2249, 421.4593L467.6231, 399.0884C467.9188, 398.7792 468.3785, 398.6924 468.7666, 398.8725L512.5176, 419.1714C512.5176, 419.1714 488.8843, 440.988 465.7176, 453.5714C442.551, 466.1547 417.7176, 468.5714 417.7176, 468.5714L405.2971, 471.4376C404.94, 471.52 404.6566, 471.7912 404.5585, 472.1444L399.7476, 489.4633C399.7277, 489.5351 399.7158, 489.6089 399.7123, 489.6834L397.7225, 531.4694C397.7193, 531.5372 397.7091, 531.6045 397.6923, 531.6702L387.7387, 570.489C387.7247, 570.5438 387.7153, 570.5997 387.7107, 570.6561L383.7223, 619.5137C383.7192, 619.5521 383.7183, 619.5907 383.7196, 619.6292L389.1823, 779.5372C389.2012, 780.0892 388.769, 780.5519 388.217, 780.5708C388.2056, 780.5712 388.1943, 780.5714 388.1829, 780.5714L302.7664, 780.5714C302.2141, 780.5714 301.7664, 780.1236 301.7664, 779.5714C301.7664, 779.5555 301.7668, 779.5396 301.7675, 779.5238L309.7166, 612.5936C309.7173, 612.5788 309.7183, 612.564 309.7197, 612.5492L315.6745, 548.0386C315.7018, 547.7426 315.596, 547.4498 315.3858, 547.2396L272.735, 504.5887C272.7234, 504.5772 272.7121, 504.5653 272.7011, 504.5532L243.8034, 472.666C243.7465, 472.6032 243.6977, 472.5333 243.6584, 472.4582L216.7496, 421.0325C216.7283, 420.9918 216.7099, 420.9497 216.6944, 420.9065L203.806, 384.9754C203.6399, 384.5123 203.8353, 383.9973 204.2666, 383.7608L250.3181, 358.5192C250.8024, 358.2538 251.4102, 358.4312 251.6757, 358.9155C251.6966, 358.9536 251.715, 358.9931 251.7308, 359.0337L256.8672, 372.2417C256.9007, 372.3277 256.922, 372.418 256.9308, 372.5099L260.1087, 406.0767C260.1146, 406.1397 260.1266, 406.2019 260.1443, 406.2627L269.4746, 438.2238C269.5031, 438.3216 269.5464, 438.4145 269.6031, 438.4992L295.6806, 477.516C295.7053, 477.5529 295.7324, 477.5881 295.7617, 477.6214L319.1032, 504.1121C319.4683, 504.5265 320.1002, 504.5664 320.5146, 504.2013C320.7362, 504.0061 320.8602, 503.7228 320.8532, 503.4276L319.9206, 463.6954C319.9186, 463.613 319.9065, 463.5312 319.8845, 463.4518L310.7189, 430.3761C310.7181, 430.3729 310.7172, 430.3698 310.7164, 430.3667L297.9725, 382.5771C297.9363, 382.4415 297.872, 382.315 297.7837, 382.2058L283.7303, 364.8343C283.5924, 364.6638 283.4022, 364.5433 283.189, 364.4915L262.4462, 359.4512C262.2331, 359.3994 262.0089, 359.4191 261.8081, 359.5073L205.312, 384.3104C204.9505, 384.4691 204.5294, 384.4003 204.2373, 384.1347L182.9141, 364.75C182.7854, 364.6329 182.6283, 364.5515 182.4584, 364.5138L156.0062, 358.6355C155.8179, 358.5936 155.6214, 358.6072 155.4406, 358.6745L112.7176, 374.5714C112.7176, 374.5714 68.051, 389.738 45.7176, 372.5714C23.3843, 355.4047 27.7176, 319.5714 27.7176, 319.5714L33.7176, 307.5714C33.7176, 307.5714 23.8843, 296.4047 20.7176, 289.5714z" fill="#039C23" fill-opacity="1" style="fill:#168218" stroke="#4DAE89" stroke-opacity="0" />
                        </g>
                      </g>
                    </g>
                  </g>
                </g>
              </g>
            </g>
          </g>
        </g>
      </g>
    </g>
  </g>
</svg>